<mxfile host="app.diagrams.net" modified="2024-03-21T07:45:47.472Z" agent="Mozilla/5.0 (Windows NT 10.0; Win64; x64) AppleWebKit/537.36 (KHTML, like Gecko) Chrome/123.0.0.0 Safari/537.36" etag="qkxHhmrwHeICYLW6MPTs" version="23.1.8" type="device">
  <diagram name="Page-1" id="HxHTZG9jR3_FnucpqLzo">
    <mxGraphModel dx="2537" dy="2072" grid="1" gridSize="10" guides="1" tooltips="1" connect="1" arrows="1" fold="1" page="1" pageScale="1" pageWidth="850" pageHeight="1100" math="0" shadow="0">
      <root>
        <mxCell id="0" />
        <mxCell id="1" parent="0" />
        <mxCell id="ak1n8J357wa7nnRljZoH-17" value="" style="rounded=1;whiteSpace=wrap;html=1;" parent="1" vertex="1">
          <mxGeometry x="530" y="-225" width="190" height="290" as="geometry" />
        </mxCell>
        <mxCell id="L-VtrKYsH3lJMOgDleEQ-33" style="edgeStyle=orthogonalEdgeStyle;rounded=1;orthogonalLoop=1;jettySize=auto;html=1;entryX=0;entryY=0.5;entryDx=0;entryDy=0;startArrow=classicThin;startFill=1;dashed=1;" parent="1" source="L-VtrKYsH3lJMOgDleEQ-1" target="L-VtrKYsH3lJMOgDleEQ-17" edge="1">
          <mxGeometry relative="1" as="geometry" />
        </mxCell>
        <mxCell id="L-VtrKYsH3lJMOgDleEQ-1" value="Client" style="whiteSpace=wrap;html=1;aspect=fixed;rounded=1;" parent="1" vertex="1">
          <mxGeometry x="-140" y="80" width="81" height="81" as="geometry" />
        </mxCell>
        <mxCell id="L-VtrKYsH3lJMOgDleEQ-16" value="" style="group;rounded=1;" parent="1" vertex="1" connectable="0">
          <mxGeometry x="317.5" y="360" width="80" height="80" as="geometry" />
        </mxCell>
        <mxCell id="L-VtrKYsH3lJMOgDleEQ-15" value="" style="whiteSpace=wrap;html=1;aspect=fixed;rounded=1;" parent="L-VtrKYsH3lJMOgDleEQ-16" vertex="1">
          <mxGeometry width="80" height="80" as="geometry" />
        </mxCell>
        <mxCell id="L-VtrKYsH3lJMOgDleEQ-4" value="" style="shape=image;verticalLabelPosition=bottom;labelBackgroundColor=default;verticalAlign=top;aspect=fixed;imageAspect=0;image=https://miro.medium.com/v2/resize:fit:933/1*nOj3vVVLRDoBeyshUt2dlw.png;rounded=1;" parent="L-VtrKYsH3lJMOgDleEQ-16" vertex="1">
          <mxGeometry x="5" y="10" width="63.68" height="60" as="geometry" />
        </mxCell>
        <mxCell id="L-VtrKYsH3lJMOgDleEQ-18" value="" style="group;rounded=1;" parent="1" vertex="1" connectable="0">
          <mxGeometry x="20" y="80" width="80" height="80" as="geometry" />
        </mxCell>
        <mxCell id="L-VtrKYsH3lJMOgDleEQ-17" value="" style="whiteSpace=wrap;html=1;aspect=fixed;rounded=1;" parent="L-VtrKYsH3lJMOgDleEQ-18" vertex="1">
          <mxGeometry width="80" height="80" as="geometry" />
        </mxCell>
        <mxCell id="L-VtrKYsH3lJMOgDleEQ-2" value="" style="shape=image;verticalLabelPosition=bottom;labelBackgroundColor=default;verticalAlign=top;aspect=fixed;imageAspect=0;image=https://www.svgrepo.com/show/373924/nginx.svg;rounded=1;" parent="L-VtrKYsH3lJMOgDleEQ-18" vertex="1">
          <mxGeometry x="7.5" y="7.5" width="65" height="65" as="geometry" />
        </mxCell>
        <mxCell id="L-VtrKYsH3lJMOgDleEQ-23" value="" style="group;rounded=1;" parent="1" vertex="1" connectable="0">
          <mxGeometry x="475" y="568" width="80" height="80" as="geometry" />
        </mxCell>
        <mxCell id="L-VtrKYsH3lJMOgDleEQ-19" value="" style="whiteSpace=wrap;html=1;aspect=fixed;rounded=1;" parent="L-VtrKYsH3lJMOgDleEQ-23" vertex="1">
          <mxGeometry width="80" height="80" as="geometry" />
        </mxCell>
        <mxCell id="L-VtrKYsH3lJMOgDleEQ-22" value="" style="shape=image;verticalLabelPosition=bottom;labelBackgroundColor=default;verticalAlign=top;aspect=fixed;imageAspect=0;image=https://dz2cdn1.dzone.com/storage/temp/12434118-spring-boot-logo.png;rounded=1;" parent="L-VtrKYsH3lJMOgDleEQ-23" vertex="1">
          <mxGeometry x="7" y="10.389999999999986" width="66" height="59.22" as="geometry" />
        </mxCell>
        <mxCell id="L-VtrKYsH3lJMOgDleEQ-24" value="" style="group;rounded=1;" parent="1" vertex="1" connectable="0">
          <mxGeometry x="695" y="568" width="80" height="80" as="geometry" />
        </mxCell>
        <mxCell id="L-VtrKYsH3lJMOgDleEQ-25" value="" style="whiteSpace=wrap;html=1;aspect=fixed;rounded=1;" parent="L-VtrKYsH3lJMOgDleEQ-24" vertex="1">
          <mxGeometry width="80" height="80" as="geometry" />
        </mxCell>
        <mxCell id="L-VtrKYsH3lJMOgDleEQ-26" value="" style="shape=image;verticalLabelPosition=bottom;labelBackgroundColor=default;verticalAlign=top;aspect=fixed;imageAspect=0;image=https://dz2cdn1.dzone.com/storage/temp/12434118-spring-boot-logo.png;rounded=1;" parent="L-VtrKYsH3lJMOgDleEQ-24" vertex="1">
          <mxGeometry x="7" y="10.389999999999986" width="66" height="59.22" as="geometry" />
        </mxCell>
        <mxCell id="L-VtrKYsH3lJMOgDleEQ-27" value="Eureka Registry" style="text;html=1;align=center;verticalAlign=middle;resizable=0;points=[];autosize=1;strokeColor=none;fillColor=none;rounded=1;" parent="1" vertex="1">
          <mxGeometry x="680" y="648" width="110" height="30" as="geometry" />
        </mxCell>
        <mxCell id="L-VtrKYsH3lJMOgDleEQ-28" value="Config Server&lt;br&gt;" style="text;html=1;align=center;verticalAlign=middle;resizable=0;points=[];autosize=1;strokeColor=none;fillColor=none;rounded=1;" parent="1" vertex="1">
          <mxGeometry x="465" y="648" width="100" height="30" as="geometry" />
        </mxCell>
        <mxCell id="L-VtrKYsH3lJMOgDleEQ-52" style="edgeStyle=orthogonalEdgeStyle;rounded=1;orthogonalLoop=1;jettySize=auto;html=1;entryX=0.5;entryY=0;entryDx=0;entryDy=0;dashed=1;endArrow=none;endFill=0;startArrow=classic;startFill=1;exitX=0.25;exitY=1;exitDx=0;exitDy=0;" parent="1" source="L-VtrKYsH3lJMOgDleEQ-32" target="L-VtrKYsH3lJMOgDleEQ-19" edge="1">
          <mxGeometry relative="1" as="geometry" />
        </mxCell>
        <mxCell id="L-VtrKYsH3lJMOgDleEQ-54" value="Push Configuration" style="edgeLabel;html=1;align=center;verticalAlign=middle;resizable=0;points=[];rounded=1;" parent="L-VtrKYsH3lJMOgDleEQ-52" vertex="1" connectable="0">
          <mxGeometry x="0.291" relative="1" as="geometry">
            <mxPoint x="-1" y="21" as="offset" />
          </mxGeometry>
        </mxCell>
        <mxCell id="L-VtrKYsH3lJMOgDleEQ-53" style="edgeStyle=orthogonalEdgeStyle;rounded=1;orthogonalLoop=1;jettySize=auto;html=1;exitX=0.75;exitY=1;exitDx=0;exitDy=0;entryX=0.5;entryY=0;entryDx=0;entryDy=0;dashed=1;" parent="1" source="L-VtrKYsH3lJMOgDleEQ-32" target="L-VtrKYsH3lJMOgDleEQ-25" edge="1">
          <mxGeometry relative="1" as="geometry">
            <Array as="points">
              <mxPoint x="690" y="519" />
              <mxPoint x="735" y="519" />
              <mxPoint x="735" y="568" />
            </Array>
          </mxGeometry>
        </mxCell>
        <mxCell id="L-VtrKYsH3lJMOgDleEQ-58" value="Register" style="edgeLabel;html=1;align=center;verticalAlign=middle;resizable=0;points=[];rounded=1;" parent="L-VtrKYsH3lJMOgDleEQ-53" vertex="1" connectable="0">
          <mxGeometry x="-0.1246" y="2" relative="1" as="geometry">
            <mxPoint x="-18" y="-17" as="offset" />
          </mxGeometry>
        </mxCell>
        <mxCell id="ak1n8J357wa7nnRljZoH-6" style="edgeStyle=orthogonalEdgeStyle;rounded=1;orthogonalLoop=1;jettySize=auto;html=1;entryX=0.5;entryY=1;entryDx=0;entryDy=0;endArrow=open;endFill=0;dashed=1;" parent="1" source="L-VtrKYsH3lJMOgDleEQ-32" target="ak1n8J357wa7nnRljZoH-3" edge="1">
          <mxGeometry relative="1" as="geometry" />
        </mxCell>
        <mxCell id="ak1n8J357wa7nnRljZoH-7" value="&amp;lt;&amp;lt;produce&amp;gt;&amp;gt;" style="edgeLabel;html=1;align=center;verticalAlign=middle;resizable=0;points=[];rounded=1;" parent="ak1n8J357wa7nnRljZoH-6" vertex="1" connectable="0">
          <mxGeometry x="0.4627" y="-1" relative="1" as="geometry">
            <mxPoint as="offset" />
          </mxGeometry>
        </mxCell>
        <mxCell id="aoPBi6iDIb-DtOySymSx-8" style="edgeStyle=orthogonalEdgeStyle;rounded=0;orthogonalLoop=1;jettySize=auto;html=1;entryX=0.5;entryY=1;entryDx=0;entryDy=0;" edge="1" parent="1" source="L-VtrKYsH3lJMOgDleEQ-32" target="aoPBi6iDIb-DtOySymSx-1">
          <mxGeometry relative="1" as="geometry" />
        </mxCell>
        <mxCell id="L-VtrKYsH3lJMOgDleEQ-32" value="Rest Api Services" style="rounded=1;whiteSpace=wrap;html=1;" parent="1" vertex="1">
          <mxGeometry x="495" y="330" width="260" height="140" as="geometry" />
        </mxCell>
        <mxCell id="L-VtrKYsH3lJMOgDleEQ-35" style="edgeStyle=orthogonalEdgeStyle;rounded=1;orthogonalLoop=1;jettySize=auto;html=1;exitX=1;exitY=0.5;exitDx=0;exitDy=0;entryX=0;entryY=0.5;entryDx=0;entryDy=0;startArrow=none;startFill=0;dashed=1;" parent="1" source="L-VtrKYsH3lJMOgDleEQ-17" target="L-VtrKYsH3lJMOgDleEQ-15" edge="1">
          <mxGeometry relative="1" as="geometry">
            <Array as="points">
              <mxPoint x="200" y="120" />
              <mxPoint x="200" y="400" />
            </Array>
          </mxGeometry>
        </mxCell>
        <mxCell id="L-VtrKYsH3lJMOgDleEQ-6" value="Reverse Proxy" style="text;html=1;align=center;verticalAlign=middle;resizable=0;points=[];autosize=1;strokeColor=none;fillColor=none;labelBackgroundColor=default;rounded=1;" parent="1" vertex="1">
          <mxGeometry x="10" y="50" width="100" height="30" as="geometry" />
        </mxCell>
        <mxCell id="L-VtrKYsH3lJMOgDleEQ-36" style="edgeStyle=orthogonalEdgeStyle;rounded=1;orthogonalLoop=1;jettySize=auto;html=1;entryX=0;entryY=0.5;entryDx=0;entryDy=0;exitX=1;exitY=0.5;exitDx=0;exitDy=0;startArrow=classicThin;startFill=1;dashed=1;" parent="1" source="L-VtrKYsH3lJMOgDleEQ-15" target="L-VtrKYsH3lJMOgDleEQ-32" edge="1">
          <mxGeometry relative="1" as="geometry" />
        </mxCell>
        <mxCell id="L-VtrKYsH3lJMOgDleEQ-39" value=":4200" style="text;html=1;align=center;verticalAlign=middle;resizable=0;points=[];autosize=1;strokeColor=none;fillColor=none;rounded=1;" parent="1" vertex="1">
          <mxGeometry x="269" y="90" width="50" height="30" as="geometry" />
        </mxCell>
        <mxCell id="L-VtrKYsH3lJMOgDleEQ-42" value=":8222" style="text;html=1;align=center;verticalAlign=middle;resizable=0;points=[];autosize=1;strokeColor=none;fillColor=none;rounded=1;" parent="1" vertex="1">
          <mxGeometry x="250" y="402" width="50" height="30" as="geometry" />
        </mxCell>
        <mxCell id="L-VtrKYsH3lJMOgDleEQ-45" style="edgeStyle=orthogonalEdgeStyle;rounded=1;orthogonalLoop=1;jettySize=auto;html=1;entryX=0.5;entryY=1;entryDx=0;entryDy=0;exitX=0;exitY=0.5;exitDx=0;exitDy=0;dashed=1;startArrow=none;startFill=0;endArrow=classic;endFill=1;" parent="1" source="L-VtrKYsH3lJMOgDleEQ-19" target="L-VtrKYsH3lJMOgDleEQ-15" edge="1">
          <mxGeometry relative="1" as="geometry">
            <mxPoint x="430" y="570" as="sourcePoint" />
          </mxGeometry>
        </mxCell>
        <mxCell id="L-VtrKYsH3lJMOgDleEQ-46" value="Push Configuration" style="edgeLabel;html=1;align=center;verticalAlign=middle;resizable=0;points=[];rounded=1;" parent="L-VtrKYsH3lJMOgDleEQ-45" vertex="1" connectable="0">
          <mxGeometry x="0.168" y="1" relative="1" as="geometry">
            <mxPoint as="offset" />
          </mxGeometry>
        </mxCell>
        <mxCell id="L-VtrKYsH3lJMOgDleEQ-5" value="Api Gateway" style="text;html=1;align=center;verticalAlign=middle;resizable=0;points=[];autosize=1;strokeColor=none;fillColor=none;labelBackgroundColor=default;rounded=1;" parent="1" vertex="1">
          <mxGeometry x="314" y="330" width="90" height="30" as="geometry" />
        </mxCell>
        <mxCell id="L-VtrKYsH3lJMOgDleEQ-48" value=":8888" style="text;html=1;align=center;verticalAlign=middle;resizable=0;points=[];autosize=1;strokeColor=none;fillColor=none;rounded=1;" parent="1" vertex="1">
          <mxGeometry x="425" y="568" width="50" height="30" as="geometry" />
        </mxCell>
        <mxCell id="L-VtrKYsH3lJMOgDleEQ-49" value=":80" style="text;html=1;align=center;verticalAlign=middle;resizable=0;points=[];autosize=1;strokeColor=none;fillColor=none;rounded=1;" parent="1" vertex="1">
          <mxGeometry x="-20" y="86" width="40" height="30" as="geometry" />
        </mxCell>
        <mxCell id="L-VtrKYsH3lJMOgDleEQ-55" value=":8761" style="text;html=1;align=center;verticalAlign=middle;resizable=0;points=[];autosize=1;strokeColor=none;fillColor=none;rounded=1;" parent="1" vertex="1">
          <mxGeometry x="750" y="538" width="50" height="30" as="geometry" />
        </mxCell>
        <mxCell id="xHAEO-uud5WA0fB1wwjp-1" value="" style="group;rounded=1;" parent="1" vertex="1" connectable="0">
          <mxGeometry x="319" y="-88" width="85" height="80" as="geometry" />
        </mxCell>
        <mxCell id="xHAEO-uud5WA0fB1wwjp-2" value="" style="whiteSpace=wrap;html=1;aspect=fixed;rounded=1;" parent="xHAEO-uud5WA0fB1wwjp-1" vertex="1">
          <mxGeometry width="80" height="80" as="geometry" />
        </mxCell>
        <mxCell id="xHAEO-uud5WA0fB1wwjp-3" value="" style="shape=image;verticalLabelPosition=bottom;labelBackgroundColor=default;verticalAlign=top;aspect=fixed;imageAspect=0;image=https://upload.wikimedia.org/wikipedia/commons/2/29/Keycloak_Logo.png;rounded=1;" parent="xHAEO-uud5WA0fB1wwjp-1" vertex="1">
          <mxGeometry x="2" y="4" width="76" height="76" as="geometry" />
        </mxCell>
        <mxCell id="xHAEO-uud5WA0fB1wwjp-6" value="" style="group;rounded=1;" parent="1" vertex="1" connectable="0">
          <mxGeometry x="130" y="-86" width="60" height="80" as="geometry" />
        </mxCell>
        <mxCell id="xHAEO-uud5WA0fB1wwjp-7" value="" style="shape=cylinder3;whiteSpace=wrap;html=1;boundedLbl=1;backgroundOutline=1;size=15;rounded=1;" parent="xHAEO-uud5WA0fB1wwjp-6" vertex="1">
          <mxGeometry width="60" height="80" as="geometry" />
        </mxCell>
        <mxCell id="xHAEO-uud5WA0fB1wwjp-8" value="" style="shape=image;verticalLabelPosition=bottom;labelBackgroundColor=default;verticalAlign=top;aspect=fixed;imageAspect=0;image=https://upload.wikimedia.org/wikipedia/commons/thumb/2/29/Postgresql_elephant.svg/1200px-Postgresql_elephant.svg.png;rounded=1;" parent="xHAEO-uud5WA0fB1wwjp-6" vertex="1">
          <mxGeometry x="5.769999999999982" y="28" width="48.46" height="50" as="geometry" />
        </mxCell>
        <mxCell id="xHAEO-uud5WA0fB1wwjp-9" value=":5432" style="text;html=1;align=center;verticalAlign=middle;resizable=0;points=[];autosize=1;strokeColor=none;fillColor=none;rounded=1;" parent="1" vertex="1">
          <mxGeometry x="190" y="-80" width="50" height="30" as="geometry" />
        </mxCell>
        <mxCell id="xHAEO-uud5WA0fB1wwjp-10" value="Keycloak DB" style="text;html=1;align=center;verticalAlign=middle;resizable=0;points=[];autosize=1;strokeColor=none;fillColor=none;rounded=1;" parent="1" vertex="1">
          <mxGeometry x="115" y="-110" width="90" height="30" as="geometry" />
        </mxCell>
        <mxCell id="xHAEO-uud5WA0fB1wwjp-12" value=":8080" style="text;html=1;align=center;verticalAlign=middle;resizable=0;points=[];autosize=1;strokeColor=none;fillColor=none;rounded=1;" parent="1" vertex="1">
          <mxGeometry x="360" y="-6" width="50" height="30" as="geometry" />
        </mxCell>
        <mxCell id="B3QIf82pWYjfh84rVYvX-1" value="" style="group;rounded=1;" parent="1" vertex="1" connectable="0">
          <mxGeometry x="319" y="80" width="80" height="80" as="geometry" />
        </mxCell>
        <mxCell id="B3QIf82pWYjfh84rVYvX-2" value="" style="whiteSpace=wrap;html=1;aspect=fixed;rounded=1;" parent="B3QIf82pWYjfh84rVYvX-1" vertex="1">
          <mxGeometry width="80" height="80" as="geometry" />
        </mxCell>
        <mxCell id="B3QIf82pWYjfh84rVYvX-3" value="" style="shape=image;verticalLabelPosition=bottom;labelBackgroundColor=default;verticalAlign=top;aspect=fixed;imageAspect=0;image=https://www.svgrepo.com/show/373924/nginx.svg;rounded=1;" parent="B3QIf82pWYjfh84rVYvX-1" vertex="1">
          <mxGeometry x="10" y="10" width="60" height="60" as="geometry" />
        </mxCell>
        <mxCell id="B3QIf82pWYjfh84rVYvX-6" value="" style="group;rounded=1;" parent="1" vertex="1" connectable="0">
          <mxGeometry x="320" y="240" width="80" height="80" as="geometry" />
        </mxCell>
        <mxCell id="L-VtrKYsH3lJMOgDleEQ-11" value="" style="whiteSpace=wrap;html=1;aspect=fixed;rounded=1;" parent="B3QIf82pWYjfh84rVYvX-6" vertex="1">
          <mxGeometry width="80" height="80" as="geometry" />
        </mxCell>
        <mxCell id="L-VtrKYsH3lJMOgDleEQ-7" value="" style="shape=image;verticalLabelPosition=bottom;labelBackgroundColor=default;verticalAlign=top;aspect=fixed;imageAspect=0;image=https://miro.medium.com/v2/resize:fit:1400/1*Klh1l7wkoG6PDPb9A5oCHQ.png;rounded=1;" parent="B3QIf82pWYjfh84rVYvX-6" vertex="1">
          <mxGeometry x="7.5" y="7.5" width="65" height="65" as="geometry" />
        </mxCell>
        <mxCell id="B3QIf82pWYjfh84rVYvX-7" style="edgeStyle=orthogonalEdgeStyle;rounded=1;orthogonalLoop=1;jettySize=auto;html=1;entryX=0.5;entryY=1;entryDx=0;entryDy=0;dashed=1;endArrow=open;endFill=0;" parent="1" source="L-VtrKYsH3lJMOgDleEQ-11" target="B3QIf82pWYjfh84rVYvX-2" edge="1">
          <mxGeometry relative="1" as="geometry" />
        </mxCell>
        <mxCell id="B3QIf82pWYjfh84rVYvX-8" value="&amp;lt;&amp;lt;deploy&amp;gt;&amp;gt;" style="edgeLabel;html=1;align=center;verticalAlign=middle;resizable=0;points=[];rounded=1;" parent="B3QIf82pWYjfh84rVYvX-7" vertex="1" connectable="0">
          <mxGeometry x="0.28" y="-2" relative="1" as="geometry">
            <mxPoint y="1" as="offset" />
          </mxGeometry>
        </mxCell>
        <mxCell id="ak1n8J357wa7nnRljZoH-1" style="edgeStyle=orthogonalEdgeStyle;rounded=1;orthogonalLoop=1;jettySize=auto;html=1;entryX=1;entryY=0.5;entryDx=0;entryDy=0;endArrow=none;endFill=0;dashed=1;exitX=0;exitY=0.5;exitDx=0;exitDy=0;startArrow=classic;startFill=1;" parent="1" source="B3QIf82pWYjfh84rVYvX-2" target="L-VtrKYsH3lJMOgDleEQ-17" edge="1">
          <mxGeometry relative="1" as="geometry">
            <Array as="points">
              <mxPoint x="110" y="120" />
              <mxPoint x="110" y="120" />
            </Array>
          </mxGeometry>
        </mxCell>
        <mxCell id="L-VtrKYsH3lJMOgDleEQ-10" value="Frontend" style="text;html=1;align=center;verticalAlign=middle;resizable=0;points=[];autosize=1;strokeColor=none;fillColor=none;labelBackgroundColor=default;rounded=1;" parent="1" vertex="1">
          <mxGeometry x="324" y="210" width="70" height="30" as="geometry" />
        </mxCell>
        <mxCell id="ak1n8J357wa7nnRljZoH-8" value="" style="group;rounded=1;" parent="1" vertex="1" connectable="0">
          <mxGeometry x="580.28" y="-165" width="80" height="80" as="geometry" />
        </mxCell>
        <mxCell id="ak1n8J357wa7nnRljZoH-9" value="" style="whiteSpace=wrap;html=1;aspect=fixed;rounded=1;" parent="ak1n8J357wa7nnRljZoH-8" vertex="1">
          <mxGeometry width="80" height="80" as="geometry" />
        </mxCell>
        <mxCell id="ak1n8J357wa7nnRljZoH-10" value="" style="shape=image;verticalLabelPosition=bottom;labelBackgroundColor=default;verticalAlign=top;aspect=fixed;imageAspect=0;image=https://dz2cdn1.dzone.com/storage/temp/12434118-spring-boot-logo.png;rounded=1;" parent="ak1n8J357wa7nnRljZoH-8" vertex="1">
          <mxGeometry x="8" y="10.389999999999986" width="66" height="59.22" as="geometry" />
        </mxCell>
        <mxCell id="ak1n8J357wa7nnRljZoH-11" value="MessagesConsumer" style="text;html=1;align=center;verticalAlign=middle;resizable=0;points=[];autosize=1;strokeColor=none;fillColor=none;rounded=1;" parent="1" vertex="1">
          <mxGeometry x="556.14" y="-195" width="130" height="30" as="geometry" />
        </mxCell>
        <mxCell id="ak1n8J357wa7nnRljZoH-12" value="" style="group;rounded=1;" parent="1" vertex="1" connectable="0">
          <mxGeometry x="581.14" y="-45" width="80" height="80" as="geometry" />
        </mxCell>
        <mxCell id="ak1n8J357wa7nnRljZoH-13" value="" style="whiteSpace=wrap;html=1;aspect=fixed;rounded=1;" parent="ak1n8J357wa7nnRljZoH-12" vertex="1">
          <mxGeometry width="80" height="80" as="geometry" />
        </mxCell>
        <mxCell id="ak1n8J357wa7nnRljZoH-14" value="" style="shape=image;verticalLabelPosition=bottom;labelBackgroundColor=default;verticalAlign=top;aspect=fixed;imageAspect=0;image=https://dz2cdn1.dzone.com/storage/temp/12434118-spring-boot-logo.png;rounded=1;" parent="ak1n8J357wa7nnRljZoH-12" vertex="1">
          <mxGeometry x="8" y="10.389999999999986" width="66" height="59.22" as="geometry" />
        </mxCell>
        <mxCell id="ak1n8J357wa7nnRljZoH-15" value="NotificationsConsumer" style="text;html=1;align=center;verticalAlign=middle;resizable=0;points=[];autosize=1;strokeColor=none;fillColor=none;rounded=1;" parent="1" vertex="1">
          <mxGeometry x="550" y="-75" width="140" height="30" as="geometry" />
        </mxCell>
        <mxCell id="ak1n8J357wa7nnRljZoH-21" style="edgeStyle=orthogonalEdgeStyle;rounded=1;orthogonalLoop=1;jettySize=auto;html=1;entryX=1;entryY=0.5;entryDx=0;entryDy=0;dashed=1;endArrow=open;endFill=0;" parent="1" source="ak1n8J357wa7nnRljZoH-3" target="ak1n8J357wa7nnRljZoH-17" edge="1">
          <mxGeometry relative="1" as="geometry" />
        </mxCell>
        <mxCell id="ak1n8J357wa7nnRljZoH-22" value="&amp;lt;&amp;lt;send&amp;gt;&amp;gt;" style="edgeLabel;html=1;align=center;verticalAlign=middle;resizable=0;points=[];rounded=1;" parent="ak1n8J357wa7nnRljZoH-21" vertex="1" connectable="0">
          <mxGeometry x="0.2" y="1" relative="1" as="geometry">
            <mxPoint x="18" y="-1" as="offset" />
          </mxGeometry>
        </mxCell>
        <mxCell id="ak1n8J357wa7nnRljZoH-3" value="" style="whiteSpace=wrap;html=1;aspect=fixed;rounded=1;" parent="1" vertex="1">
          <mxGeometry x="850" y="65" width="110" height="110" as="geometry" />
        </mxCell>
        <mxCell id="ak1n8J357wa7nnRljZoH-4" value="" style="shape=image;verticalLabelPosition=bottom;labelBackgroundColor=default;verticalAlign=top;aspect=fixed;imageAspect=0;image=https://upload.wikimedia.org/wikipedia/commons/thumb/0/0a/Apache_kafka-icon.svg/1200px-Apache_kafka-icon.svg.png;rounded=1;" parent="1" vertex="1">
          <mxGeometry x="865.8125" y="84.2625" width="78.375" height="78.375" as="geometry" />
        </mxCell>
        <mxCell id="ak1n8J357wa7nnRljZoH-5" value="Kafka Broker" style="text;html=1;align=center;verticalAlign=middle;resizable=0;points=[];autosize=1;strokeColor=none;fillColor=none;labelBackgroundColor=default;rounded=1;" parent="1" vertex="1">
          <mxGeometry x="860" y="35" width="90" height="30" as="geometry" />
        </mxCell>
        <mxCell id="ak1n8J357wa7nnRljZoH-18" style="edgeStyle=orthogonalEdgeStyle;rounded=1;orthogonalLoop=1;jettySize=auto;html=1;entryX=0;entryY=0.5;entryDx=0;entryDy=0;exitX=1;exitY=0.5;exitDx=0;exitDy=0;dashed=1;endArrow=open;endFill=0;" parent="1" source="B3QIf82pWYjfh84rVYvX-2" target="ak1n8J357wa7nnRljZoH-17" edge="1">
          <mxGeometry relative="1" as="geometry">
            <mxPoint x="420" y="120" as="sourcePoint" />
            <Array as="points">
              <mxPoint x="460" y="120" />
              <mxPoint x="460" y="-80" />
            </Array>
          </mxGeometry>
        </mxCell>
        <mxCell id="ak1n8J357wa7nnRljZoH-19" value="&amp;lt;&amp;lt;subcribe&amp;gt;&amp;gt;" style="edgeLabel;html=1;align=center;verticalAlign=middle;resizable=0;points=[];rounded=1;" parent="ak1n8J357wa7nnRljZoH-18" vertex="1" connectable="0">
          <mxGeometry x="-0.2977" y="-5" relative="1" as="geometry">
            <mxPoint x="-5" y="-30" as="offset" />
          </mxGeometry>
        </mxCell>
        <mxCell id="ak1n8J357wa7nnRljZoH-20" value="WebsocketConsumers" style="text;html=1;align=center;verticalAlign=middle;resizable=0;points=[];autosize=1;strokeColor=none;fillColor=none;" parent="1" vertex="1">
          <mxGeometry x="551.14" y="-255" width="140" height="30" as="geometry" />
        </mxCell>
        <mxCell id="ak1n8J357wa7nnRljZoH-23" style="edgeStyle=orthogonalEdgeStyle;rounded=1;orthogonalLoop=1;jettySize=auto;html=1;entryX=0.5;entryY=0;entryDx=0;entryDy=0;dashed=1;endArrow=none;endFill=0;startArrow=classic;startFill=1;" parent="1" source="xHAEO-uud5WA0fB1wwjp-3" target="B3QIf82pWYjfh84rVYvX-2" edge="1">
          <mxGeometry relative="1" as="geometry">
            <mxPoint x="360" y="10" as="targetPoint" />
          </mxGeometry>
        </mxCell>
        <mxCell id="ak1n8J357wa7nnRljZoH-25" style="edgeStyle=orthogonalEdgeStyle;rounded=1;orthogonalLoop=1;jettySize=auto;html=1;entryX=1;entryY=0.5;entryDx=0;entryDy=0;entryPerimeter=0;endArrow=classic;endFill=1;startArrow=none;startFill=0;dashed=1;" parent="1" source="xHAEO-uud5WA0fB1wwjp-3" target="xHAEO-uud5WA0fB1wwjp-7" edge="1">
          <mxGeometry relative="1" as="geometry" />
        </mxCell>
        <mxCell id="B3QIf82pWYjfh84rVYvX-9" value="Frontend server" style="text;html=1;align=center;verticalAlign=middle;resizable=0;points=[];autosize=1;strokeColor=none;fillColor=none;rounded=1;labelBackgroundColor=default;" parent="1" vertex="1">
          <mxGeometry x="309" y="40" width="110" height="30" as="geometry" />
        </mxCell>
        <mxCell id="xHAEO-uud5WA0fB1wwjp-4" value="Authorization" style="text;html=1;align=center;verticalAlign=middle;resizable=0;points=[];autosize=1;strokeColor=none;fillColor=none;rounded=1;" parent="1" vertex="1">
          <mxGeometry x="310" y="-118" width="90" height="30" as="geometry" />
        </mxCell>
        <mxCell id="aoPBi6iDIb-DtOySymSx-3" value="" style="group" vertex="1" connectable="0" parent="1">
          <mxGeometry x="585" y="210" width="80" height="80" as="geometry" />
        </mxCell>
        <mxCell id="aoPBi6iDIb-DtOySymSx-1" value="" style="whiteSpace=wrap;html=1;aspect=fixed;" vertex="1" parent="aoPBi6iDIb-DtOySymSx-3">
          <mxGeometry width="80" height="80" as="geometry" />
        </mxCell>
        <mxCell id="aoPBi6iDIb-DtOySymSx-2" value="" style="shape=image;verticalLabelPosition=bottom;labelBackgroundColor=default;verticalAlign=top;aspect=fixed;imageAspect=0;image=https://www.svgrepo.com/show/373924/nginx.svg;rounded=1;" vertex="1" parent="aoPBi6iDIb-DtOySymSx-3">
          <mxGeometry x="10" y="10" width="60" height="60" as="geometry" />
        </mxCell>
        <mxCell id="aoPBi6iDIb-DtOySymSx-4" style="edgeStyle=orthogonalEdgeStyle;rounded=0;orthogonalLoop=1;jettySize=auto;html=1;entryX=0;entryY=0.5;entryDx=0;entryDy=0;dashed=1;" edge="1" parent="1" source="B3QIf82pWYjfh84rVYvX-3" target="aoPBi6iDIb-DtOySymSx-1">
          <mxGeometry relative="1" as="geometry">
            <Array as="points">
              <mxPoint x="460" y="120" />
              <mxPoint x="460" y="250" />
            </Array>
          </mxGeometry>
        </mxCell>
        <mxCell id="aoPBi6iDIb-DtOySymSx-5" value="/images" style="edgeLabel;html=1;align=center;verticalAlign=middle;resizable=0;points=[];" vertex="1" connectable="0" parent="aoPBi6iDIb-DtOySymSx-4">
          <mxGeometry x="-0.0571" y="-1" relative="1" as="geometry">
            <mxPoint as="offset" />
          </mxGeometry>
        </mxCell>
        <mxCell id="aoPBi6iDIb-DtOySymSx-6" value=":4000" style="text;html=1;align=center;verticalAlign=middle;resizable=0;points=[];autosize=1;strokeColor=none;fillColor=none;" vertex="1" parent="1">
          <mxGeometry x="541.14" y="220" width="50" height="30" as="geometry" />
        </mxCell>
        <mxCell id="aoPBi6iDIb-DtOySymSx-7" value="Images Nginx" style="text;html=1;align=center;verticalAlign=middle;resizable=0;points=[];autosize=1;strokeColor=none;fillColor=none;" vertex="1" parent="1">
          <mxGeometry x="582" y="175" width="100" height="30" as="geometry" />
        </mxCell>
      </root>
    </mxGraphModel>
  </diagram>
</mxfile>
